<svg width="1303" height="158" viewBox="0 0 1303 158" fill="none" xmlns="http://www.w3.org/2000/svg">
<g clip-path="url(#clip0_115_97)">
<rect width="1303" height="158" fill="none"/>
<g filter="url(#filter0_d_115_97)">
<path d="M448.414 151H432.115L428.244 133.886C421.453 141.628 414.661 146.993 407.87 149.981C401.079 152.969 393.269 154.464 384.44 154.464C373.574 154.464 363.794 152.494 355.101 148.555C346.544 144.48 339.278 138.979 333.301 132.052C327.325 125.125 322.707 117.043 319.447 107.807C316.323 98.5709 314.761 88.7235 314.761 78.2648C314.761 67.942 316.323 58.1625 319.447 48.9262C322.707 39.69 327.325 31.6084 333.301 24.6812C339.278 17.754 346.544 12.2531 355.101 8.17825C363.794 4.10345 373.574 2.06605 384.44 2.06605C392.318 2.06605 399.788 3.15267 406.851 5.32589C414.05 7.36329 420.434 10.4873 426.003 14.6979C431.572 18.7727 436.19 23.9341 439.857 30.1822C443.525 36.4302 445.834 43.629 446.784 51.7786H421.928C421.249 47.0247 419.755 42.882 417.446 39.3505C415.273 35.6831 412.488 32.627 409.092 30.1822C405.697 27.7373 401.894 25.9036 397.683 24.6812C393.472 23.4588 389.058 22.8475 384.44 22.8475C376.698 22.8475 369.974 24.4095 364.27 27.5336C358.701 30.6576 354.151 34.8682 350.619 40.1654C347.088 45.3268 344.439 51.2353 342.673 57.8908C341.043 64.5463 340.228 71.3377 340.228 78.2648C340.228 85.192 341.043 91.9833 342.673 98.6388C344.439 105.294 347.088 111.271 350.619 116.568C354.151 121.729 358.701 125.872 364.27 128.996C369.974 132.12 376.698 133.682 384.44 133.682C390.96 133.818 396.732 133.003 401.758 131.237C406.783 129.336 410.994 126.687 414.39 123.291C417.921 119.76 420.57 115.481 422.336 110.456C424.101 105.43 425.052 99.8613 425.188 93.7491H386.477V74.3938H448.414V151ZM459.781 5.52963H529.256C545.284 5.52963 557.304 8.99321 565.318 15.9204C573.332 22.8475 577.339 32.4912 577.339 44.8515C577.339 51.7786 576.32 57.5512 574.283 62.1694C572.245 66.6516 569.868 70.319 567.152 73.1713C564.435 75.8878 561.719 77.8573 559.002 79.0798C556.421 80.3022 554.52 81.1172 553.297 81.5247V81.9321C555.471 82.2038 557.78 82.8829 560.225 83.9695C562.805 85.0561 565.182 86.8219 567.355 89.2668C569.529 91.5758 571.294 94.6319 572.653 98.4351C574.147 102.238 574.894 106.992 574.894 112.697C574.894 121.254 575.505 129.064 576.728 136.127C578.086 143.054 580.123 148.012 582.84 151H555.539C553.637 147.876 552.482 144.412 552.075 140.609C551.803 136.806 551.667 133.139 551.667 129.607C551.667 122.952 551.26 117.247 550.445 112.493C549.63 107.603 548.136 103.596 545.963 100.472C543.79 97.2126 540.801 94.8357 536.998 93.3416C533.331 91.8475 528.577 91.1004 522.736 91.1004H485.248V151H459.781V5.52963ZM485.248 71.7451H527.015C535.165 71.7451 541.345 69.8436 545.555 66.0404C549.766 62.1014 551.871 56.2609 551.871 48.5188C551.871 43.9007 551.192 40.1654 549.834 37.3131C548.476 34.3249 546.574 32.0158 544.129 30.3859C541.82 28.756 539.104 27.6694 535.979 27.1261C532.991 26.5828 529.867 26.3111 526.607 26.3111H485.248V71.7451ZM641.13 5.52963H668.227L724.256 151H696.955L683.304 112.493H625.238L611.588 151H585.305L641.13 5.52963ZM632.165 93.1378H676.581L654.781 30.5897H654.169L632.165 93.1378ZM730.57 5.52963H766.429L806.565 119.42H806.973L846.091 5.52963H881.542V151H857.297V38.7393H856.889L816.549 151H795.563L755.223 38.7393H754.815V151H730.57V5.52963ZM899.404 5.52963H935.262L975.399 119.42H975.806L1014.92 5.52963H1050.38V151H1026.13V38.7393H1025.72L985.382 151H964.397L924.056 38.7393H923.649V151H899.404V5.52963ZM1110.62 93.9528L1056.01 5.52963H1085.56L1124.06 70.7264L1161.96 5.52963H1190.48L1136.08 93.9528V151H1110.62V93.9528ZM1209.31 102.51C1209.31 108.079 1210.27 112.833 1212.17 116.772C1214.07 120.711 1216.72 123.97 1220.11 126.551C1223.51 128.996 1227.38 130.83 1231.73 132.052C1236.21 133.139 1241.03 133.682 1246.19 133.682C1251.76 133.682 1256.51 133.071 1260.45 131.848C1264.39 130.49 1267.58 128.792 1270.03 126.755C1272.47 124.718 1274.24 122.408 1275.33 119.828C1276.41 117.111 1276.96 114.395 1276.96 111.678C1276.96 106.109 1275.67 102.034 1273.09 99.4538C1270.64 96.7372 1267.92 94.8357 1264.94 93.7491C1259.77 91.8475 1253.73 90.0817 1246.8 88.4518C1240.01 86.6861 1231.59 84.4449 1221.54 81.7284C1215.29 80.0985 1210.06 77.9932 1205.85 75.4125C1201.78 72.6959 1198.52 69.7077 1196.07 66.4479C1193.63 63.1881 1191.86 59.7245 1190.77 56.0572C1189.82 52.3898 1189.35 48.6546 1189.35 44.8515C1189.35 37.5168 1190.84 31.2009 1193.83 25.9036C1196.95 20.4706 1201.03 15.9883 1206.05 12.4568C1211.08 8.9253 1216.79 6.34459 1223.17 4.71466C1229.55 2.94892 1236 2.06605 1242.52 2.06605C1250.13 2.06605 1257.26 3.08475 1263.92 5.12215C1270.71 7.02373 1276.62 9.944 1281.64 13.883C1286.8 17.8219 1290.88 22.7117 1293.87 28.5523C1296.86 34.257 1298.35 40.9125 1298.35 48.5188H1272.88C1272.2 39.1467 1269.01 32.5591 1263.31 28.756C1257.6 24.817 1250.33 22.8475 1241.51 22.8475C1238.52 22.8475 1235.46 23.1871 1232.34 23.8662C1229.21 24.4095 1226.36 25.4282 1223.78 26.9223C1221.2 28.2806 1219.03 30.1822 1217.26 32.6271C1215.63 35.0719 1214.82 38.128 1214.82 41.7954C1214.82 46.9568 1216.38 51.0316 1219.5 54.0198C1222.76 56.8721 1226.97 59.0453 1232.13 60.5394C1232.68 60.6753 1234.78 61.2865 1238.45 62.3731C1242.25 63.3239 1246.46 64.4105 1251.08 65.6329C1255.7 66.8554 1260.18 68.0778 1264.53 69.3003C1269.01 70.3869 1272.2 71.2018 1274.1 71.7451C1278.86 73.2392 1283 75.2766 1286.53 77.8573C1290.06 80.438 1292.98 83.4262 1295.29 86.8219C1297.74 90.0817 1299.5 93.6132 1300.59 97.4164C1301.81 101.22 1302.42 105.023 1302.42 108.826C1302.42 116.975 1300.73 123.97 1297.33 129.811C1294.07 135.516 1289.72 140.202 1284.29 143.869C1278.86 147.536 1272.68 150.185 1265.75 151.815C1258.82 153.581 1251.76 154.464 1244.56 154.464C1236.28 154.464 1228.47 153.445 1221.13 151.407C1213.8 149.37 1207.41 146.246 1201.98 142.035C1196.55 137.825 1192.2 132.46 1188.94 125.94C1185.68 119.284 1183.98 111.474 1183.85 102.51H1209.31Z" fill="white"/>
</g>
<g filter="url(#filter1_d_115_97)">
<path d="M74.4773 44.444C73.934 38.6034 71.8287 33.9174 68.1614 30.3859C64.6299 26.7186 59.808 24.8849 53.6958 24.8849C49.4852 24.8849 45.8179 25.6999 42.6939 27.3298C39.7057 28.8239 37.125 30.8613 34.9517 33.442C32.9143 36.0227 31.2165 39.0109 29.8582 42.4066C28.6358 45.6664 27.6171 49.13 26.8021 52.7973C25.9872 56.4646 25.376 60.132 24.9685 63.7993C24.6968 67.3308 24.4252 70.6585 24.1535 73.7825L24.561 74.19C27.685 68.4853 31.9636 64.2747 37.3966 61.5581C42.9655 58.7058 48.9419 57.2796 55.3257 57.2796C62.3887 57.2796 68.7047 58.502 74.2736 60.9469C79.8425 63.3918 84.5285 66.7875 88.3316 71.1339C92.2706 75.3445 95.2588 80.3701 97.2962 86.2107C99.3336 92.0512 100.352 98.3672 100.352 105.158C100.352 112.086 99.1978 118.537 96.8887 124.514C94.7155 130.354 91.5236 135.516 87.3129 139.998C83.1023 144.344 78.0767 147.74 72.2362 150.185C66.3956 152.63 59.9439 153.852 52.8809 153.852C42.4222 153.852 33.7972 151.951 27.0059 148.148C20.3504 144.209 15.0531 138.911 11.1142 132.256C7.31101 125.465 4.66239 117.587 3.1683 108.622C1.67421 99.5217 0.927161 89.7422 0.927161 79.2835C0.927161 70.7264 1.81003 62.1014 3.57578 53.4085C5.47735 44.7156 8.53345 36.8377 12.7441 29.7747C16.9547 22.5759 22.4557 16.7353 29.247 12.253C36.1742 7.77077 44.6633 5.52963 54.7145 5.52963C60.4192 5.52963 65.7844 6.48041 70.81 8.38199C75.8356 10.2836 80.2499 12.9322 84.0531 16.3279C87.9921 19.7235 91.184 23.7983 93.6289 28.5523C96.0737 33.3062 97.432 38.6034 97.7037 44.444H74.4773ZM52.0659 134.497C56.2765 134.497 59.9439 133.682 63.0679 132.052C66.1919 130.286 68.7726 128.045 70.81 125.329C72.9832 122.612 74.5452 119.488 75.496 115.957C76.5826 112.289 77.1259 108.554 77.1259 104.751C77.1259 100.948 76.5826 97.2805 75.496 93.7491C74.5452 90.2176 72.9832 87.1615 70.81 84.5808C68.7726 81.8642 66.1919 79.691 63.0679 78.0611C59.9439 76.4312 56.2765 75.6162 52.0659 75.6162C47.8553 75.6162 44.12 76.4312 40.8602 78.0611C37.7362 79.5552 35.0876 81.6605 32.9143 84.377C30.7411 86.9577 29.1112 90.0138 28.0246 93.5453C26.938 97.0768 26.3947 100.812 26.3947 104.751C26.3947 108.69 26.938 112.425 28.0246 115.957C29.1112 119.488 30.7411 122.68 32.9143 125.532C35.0876 128.249 37.7362 130.422 40.8602 132.052C44.12 133.682 47.8553 134.497 52.0659 134.497ZM123.918 98.8426H167.111V36.0906H166.703L123.918 98.8426ZM207.451 117.179H189.114V151H167.111V117.179H105.989V94.1565L167.111 8.38199H189.114V98.8426H207.451V117.179ZM215.116 98.9174H223.779V83.3027H235.264V98.9174H245.64V107.48H235.264V135.285C235.264 136.493 235.297 137.534 235.364 138.408C235.499 139.281 235.734 140.019 236.07 140.624C236.473 141.228 237.043 141.698 237.782 142.034C238.521 142.303 239.528 142.437 240.804 142.437C241.61 142.437 242.416 142.437 243.222 142.437C244.028 142.37 244.834 142.236 245.64 142.034V150.899C244.364 151.034 243.121 151.168 241.913 151.302C240.704 151.437 239.461 151.504 238.185 151.504C235.163 151.504 232.712 151.235 230.831 150.698C229.018 150.093 227.574 149.254 226.499 148.179C225.492 147.038 224.787 145.627 224.384 143.948C224.048 142.269 223.847 140.355 223.779 138.206V107.48H215.116V98.9174ZM253.901 79.0716H265.386V105.768H265.587C266.998 103.417 269.08 101.469 271.833 99.9248C274.654 98.313 277.777 97.5071 281.202 97.5071C286.911 97.5071 291.41 98.9846 294.701 101.94C297.992 104.895 299.637 109.327 299.637 115.237V151H288.153V118.259C288.019 114.163 287.146 111.208 285.534 109.394C283.922 107.514 281.403 106.574 277.978 106.574C276.031 106.574 274.284 106.943 272.74 107.682C271.195 108.353 269.885 109.327 268.811 110.603C267.736 111.812 266.897 113.256 266.292 114.935C265.688 116.614 265.386 118.394 265.386 120.274V151H253.901V79.0716Z" fill="white"/>
</g>
</g>
<defs>
<filter id="filter0_d_115_97" x="310.761" y="-0.93396" width="995.663" height="160.398" filterUnits="userSpaceOnUse" color-interpolation-filters="sRGB">
<feFlood flood-opacity="0" result="BackgroundImageFix"/>
<feColorMatrix in="SourceAlpha" type="matrix" values="0 0 0 0 0 0 0 0 0 0 0 0 0 0 0 0 0 0 127 0" result="hardAlpha"/>
<feOffset dy="1"/>
<feGaussianBlur stdDeviation="2"/>
<feComposite in2="hardAlpha" operator="out"/>
<feColorMatrix type="matrix" values="0 0 0 0 0 0 0 0 0 0 0 0 0 0 0 0 0 0 0.5 0"/>
<feBlend mode="normal" in2="BackgroundImageFix" result="effect1_dropShadow_115_97"/>
<feBlend mode="normal" in="SourceGraphic" in2="effect1_dropShadow_115_97" result="shape"/>
</filter>
<filter id="filter1_d_115_97" x="-3.07275" y="2.52963" width="306.71" height="156.323" filterUnits="userSpaceOnUse" color-interpolation-filters="sRGB">
<feFlood flood-opacity="0" result="BackgroundImageFix"/>
<feColorMatrix in="SourceAlpha" type="matrix" values="0 0 0 0 0 0 0 0 0 0 0 0 0 0 0 0 0 0 127 0" result="hardAlpha"/>
<feOffset dy="1"/>
<feGaussianBlur stdDeviation="2"/>
<feComposite in2="hardAlpha" operator="out"/>
<feColorMatrix type="matrix" values="0 0 0 0 0 0 0 0 0 0 0 0 0 0 0 0 0 0 0.5 0"/>
<feBlend mode="normal" in2="BackgroundImageFix" result="effect1_dropShadow_115_97"/>
<feBlend mode="normal" in="SourceGraphic" in2="effect1_dropShadow_115_97" result="shape"/>
</filter>
<clipPath id="clip0_115_97">
<rect width="1303" height="158" fill="none"/>
</clipPath>
</defs>
</svg>
