<svg width="1307" height="158" viewBox="0 0 1307 158" fill="none" xmlns="http://www.w3.org/2000/svg">
<g clip-path="url(#clip0_115_97)">
<rect width="1307" height="158" fill="white"/>
<g filter="url(#filter0_d_115_97)">
<path d="M450.414 151H434.115L430.244 133.886C423.453 141.628 416.661 146.993 409.87 149.981C403.079 152.969 395.269 154.464 386.44 154.464C375.574 154.464 365.794 152.494 357.101 148.555C348.544 144.48 341.278 138.979 335.301 132.052C329.325 125.125 324.707 117.043 321.447 107.807C318.323 98.5709 316.761 88.7235 316.761 78.2648C316.761 67.942 318.323 58.1625 321.447 48.9262C324.707 39.69 329.325 31.6084 335.301 24.6812C341.278 17.754 348.544 12.2531 357.101 8.17825C365.794 4.10345 375.574 2.06605 386.44 2.06605C394.318 2.06605 401.788 3.15267 408.851 5.32589C416.05 7.36329 422.434 10.4873 428.003 14.6979C433.572 18.7727 438.19 23.9341 441.857 30.1822C445.525 36.4302 447.834 43.629 448.784 51.7786H423.928C423.249 47.0247 421.755 42.882 419.446 39.3505C417.273 35.6831 414.488 32.627 411.092 30.1822C407.697 27.7373 403.894 25.9036 399.683 24.6812C395.472 23.4588 391.058 22.8475 386.44 22.8475C378.698 22.8475 371.974 24.4095 366.27 27.5336C360.701 30.6576 356.151 34.8682 352.619 40.1654C349.088 45.3268 346.439 51.2353 344.673 57.8908C343.043 64.5463 342.228 71.3377 342.228 78.2648C342.228 85.192 343.043 91.9833 344.673 98.6388C346.439 105.294 349.088 111.271 352.619 116.568C356.151 121.729 360.701 125.872 366.27 128.996C371.974 132.12 378.698 133.682 386.44 133.682C392.96 133.818 398.732 133.003 403.758 131.237C408.783 129.336 412.994 126.687 416.39 123.291C419.921 119.76 422.57 115.481 424.336 110.456C426.101 105.43 427.052 99.8613 427.188 93.7491H388.477V74.3938H450.414V151ZM461.781 5.52963H531.256C547.284 5.52963 559.304 8.99321 567.318 15.9204C575.332 22.8475 579.339 32.4912 579.339 44.8515C579.339 51.7786 578.32 57.5512 576.283 62.1694C574.245 66.6516 571.868 70.319 569.152 73.1713C566.435 75.8878 563.719 77.8573 561.002 79.0798C558.421 80.3022 556.52 81.1172 555.297 81.5247V81.9321C557.471 82.2038 559.78 82.8829 562.225 83.9695C564.805 85.0561 567.182 86.8219 569.355 89.2668C571.529 91.5758 573.294 94.6319 574.653 98.4351C576.147 102.238 576.894 106.992 576.894 112.697C576.894 121.254 577.505 129.064 578.728 136.127C580.086 143.054 582.123 148.012 584.84 151H557.539C555.637 147.876 554.482 144.412 554.075 140.609C553.803 136.806 553.667 133.139 553.667 129.607C553.667 122.952 553.26 117.247 552.445 112.493C551.63 107.603 550.136 103.596 547.963 100.472C545.79 97.2126 542.801 94.8357 538.998 93.3416C535.331 91.8475 530.577 91.1004 524.736 91.1004H487.248V151H461.781V5.52963ZM487.248 71.7451H529.015C537.165 71.7451 543.345 69.8436 547.555 66.0404C551.766 62.1014 553.871 56.2609 553.871 48.5188C553.871 43.9007 553.192 40.1654 551.834 37.3131C550.476 34.3249 548.574 32.0158 546.129 30.3859C543.82 28.756 541.104 27.6694 537.979 27.1261C534.991 26.5828 531.867 26.3111 528.607 26.3111H487.248V71.7451ZM643.13 5.52963H670.227L726.256 151H698.955L685.304 112.493H627.238L613.588 151H587.305L643.13 5.52963ZM634.165 93.1378H678.581L656.781 30.5897H656.169L634.165 93.1378ZM732.57 5.52963H768.429L808.565 119.42H808.973L848.091 5.52963H883.542V151H859.297V38.7393H858.889L818.549 151H797.563L757.223 38.7393H756.815V151H732.57V5.52963ZM901.404 5.52963H937.262L977.399 119.42H977.806L1016.92 5.52963H1052.38V151H1028.13V38.7393H1027.72L987.382 151H966.397L926.056 38.7393H925.649V151H901.404V5.52963ZM1112.62 93.9528L1058.01 5.52963H1087.56L1126.06 70.7264L1163.96 5.52963H1192.48L1138.08 93.9528V151H1112.62V93.9528ZM1211.31 102.51C1211.31 108.079 1212.27 112.833 1214.17 116.772C1216.07 120.711 1218.72 123.97 1222.11 126.551C1225.51 128.996 1229.38 130.83 1233.73 132.052C1238.21 133.139 1243.03 133.682 1248.19 133.682C1253.76 133.682 1258.51 133.071 1262.45 131.848C1266.39 130.49 1269.58 128.792 1272.03 126.755C1274.47 124.718 1276.24 122.408 1277.33 119.828C1278.41 117.111 1278.96 114.395 1278.96 111.678C1278.96 106.109 1277.67 102.034 1275.09 99.4538C1272.64 96.7372 1269.92 94.8357 1266.94 93.7491C1261.77 91.8475 1255.73 90.0817 1248.8 88.4518C1242.01 86.6861 1233.59 84.4449 1223.54 81.7284C1217.29 80.0985 1212.06 77.9932 1207.85 75.4125C1203.78 72.6959 1200.52 69.7077 1198.07 66.4479C1195.63 63.1881 1193.86 59.7245 1192.77 56.0572C1191.82 52.3898 1191.35 48.6546 1191.35 44.8515C1191.35 37.5168 1192.84 31.2009 1195.83 25.9036C1198.95 20.4706 1203.03 15.9883 1208.05 12.4568C1213.08 8.9253 1218.79 6.34459 1225.17 4.71466C1231.55 2.94892 1238 2.06605 1244.52 2.06605C1252.13 2.06605 1259.26 3.08475 1265.92 5.12215C1272.71 7.02373 1278.62 9.944 1283.64 13.883C1288.8 17.8219 1292.88 22.7117 1295.87 28.5523C1298.86 34.257 1300.35 40.9125 1300.35 48.5188H1274.88C1274.2 39.1467 1271.01 32.5591 1265.31 28.756C1259.6 24.817 1252.33 22.8475 1243.51 22.8475C1240.52 22.8475 1237.46 23.1871 1234.34 23.8662C1231.21 24.4095 1228.36 25.4282 1225.78 26.9223C1223.2 28.2806 1221.03 30.1822 1219.26 32.6271C1217.63 35.0719 1216.82 38.128 1216.82 41.7954C1216.82 46.9568 1218.38 51.0316 1221.5 54.0198C1224.76 56.8721 1228.97 59.0453 1234.13 60.5394C1234.68 60.6753 1236.78 61.2865 1240.45 62.3731C1244.25 63.3239 1248.46 64.4105 1253.08 65.6329C1257.7 66.8554 1262.18 68.0778 1266.53 69.3003C1271.01 70.3869 1274.2 71.2018 1276.1 71.7451C1280.86 73.2392 1285 75.2766 1288.53 77.8573C1292.06 80.438 1294.98 83.4262 1297.29 86.8219C1299.74 90.0817 1301.5 93.6132 1302.59 97.4164C1303.81 101.22 1304.42 105.023 1304.42 108.826C1304.42 116.975 1302.73 123.97 1299.33 129.811C1296.07 135.516 1291.72 140.202 1286.29 143.869C1280.86 147.536 1274.68 150.185 1267.75 151.815C1260.82 153.581 1253.76 154.464 1246.56 154.464C1238.28 154.464 1230.47 153.445 1223.13 151.407C1215.8 149.37 1209.41 146.246 1203.98 142.035C1198.55 137.825 1194.2 132.46 1190.94 125.94C1187.68 119.284 1185.98 111.474 1185.85 102.51H1211.31Z" fill="white"/>
</g>
<g filter="url(#filter1_d_115_97)">
<path d="M76.4773 44.444C75.934 38.6034 73.8287 33.9174 70.1614 30.3859C66.6299 26.7186 61.808 24.8849 55.6958 24.8849C51.4852 24.8849 47.8179 25.6999 44.6939 27.3298C41.7057 28.8239 39.125 30.8613 36.9517 33.442C34.9143 36.0227 33.2165 39.0109 31.8582 42.4066C30.6358 45.6664 29.6171 49.13 28.8021 52.7973C27.9872 56.4646 27.376 60.132 26.9685 63.7993C26.6968 67.3308 26.4252 70.6585 26.1535 73.7825L26.561 74.19C29.685 68.4853 33.9636 64.2747 39.3966 61.5581C44.9655 58.7058 50.9419 57.2796 57.3257 57.2796C64.3887 57.2796 70.7047 58.502 76.2736 60.9469C81.8425 63.3918 86.5285 66.7875 90.3316 71.1339C94.2706 75.3445 97.2588 80.3701 99.2962 86.2107C101.334 92.0512 102.352 98.3672 102.352 105.158C102.352 112.086 101.198 118.537 98.8887 124.514C96.7155 130.354 93.5236 135.516 89.3129 139.998C85.1023 144.344 80.0767 147.74 74.2362 150.185C68.3956 152.63 61.9439 153.852 54.8809 153.852C44.4222 153.852 35.7972 151.951 29.0059 148.148C22.3504 144.209 17.0531 138.911 13.1142 132.256C9.31101 125.465 6.66239 117.587 5.1683 108.622C3.67421 99.5217 2.92716 89.7422 2.92716 79.2835C2.92716 70.7264 3.81003 62.1014 5.57578 53.4085C7.47735 44.7156 10.5335 36.8377 14.7441 29.7747C18.9547 22.5759 24.4557 16.7353 31.247 12.253C38.1742 7.77077 46.6633 5.52963 56.7145 5.52963C62.4192 5.52963 67.7844 6.48041 72.81 8.38199C77.8356 10.2836 82.2499 12.9322 86.0531 16.3279C89.9921 19.7235 93.184 23.7983 95.6289 28.5523C98.0737 33.3062 99.432 38.6034 99.7037 44.444H76.4773ZM54.0659 134.497C58.2765 134.497 61.9439 133.682 65.0679 132.052C68.1919 130.286 70.7726 128.045 72.81 125.329C74.9832 122.612 76.5452 119.488 77.496 115.957C78.5826 112.289 79.1259 108.554 79.1259 104.751C79.1259 100.948 78.5826 97.2805 77.496 93.7491C76.5452 90.2176 74.9832 87.1615 72.81 84.5808C70.7726 81.8642 68.1919 79.691 65.0679 78.0611C61.9439 76.4312 58.2765 75.6162 54.0659 75.6162C49.8553 75.6162 46.12 76.4312 42.8602 78.0611C39.7362 79.5552 37.0876 81.6605 34.9143 84.377C32.7411 86.9577 31.1112 90.0138 30.0246 93.5453C28.938 97.0768 28.3947 100.812 28.3947 104.751C28.3947 108.69 28.938 112.425 30.0246 115.957C31.1112 119.488 32.7411 122.68 34.9143 125.532C37.0876 128.249 39.7362 130.422 42.8602 132.052C46.12 133.682 49.8553 134.497 54.0659 134.497ZM125.918 98.8426H169.111V36.0906H168.703L125.918 98.8426ZM209.451 117.179H191.114V151H169.111V117.179H107.989V94.1565L169.111 8.38199H191.114V98.8426H209.451V117.179ZM217.116 98.9174H225.779V83.3027H237.264V98.9174H247.64V107.48H237.264V135.285C237.264 136.493 237.297 137.534 237.364 138.408C237.499 139.281 237.734 140.019 238.07 140.624C238.473 141.228 239.043 141.698 239.782 142.034C240.521 142.303 241.528 142.437 242.804 142.437C243.61 142.437 244.416 142.437 245.222 142.437C246.028 142.37 246.834 142.236 247.64 142.034V150.899C246.364 151.034 245.121 151.168 243.913 151.302C242.704 151.437 241.461 151.504 240.185 151.504C237.163 151.504 234.712 151.235 232.831 150.698C231.018 150.093 229.574 149.254 228.499 148.179C227.492 147.038 226.787 145.627 226.384 143.948C226.048 142.269 225.847 140.355 225.779 138.206V107.48H217.116V98.9174ZM255.901 79.0716H267.386V105.768H267.587C268.998 103.417 271.08 101.469 273.833 99.9248C276.654 98.313 279.777 97.5071 283.202 97.5071C288.911 97.5071 293.41 98.9846 296.701 101.94C299.992 104.895 301.637 109.327 301.637 115.237V151H290.153V118.259C290.019 114.163 289.146 111.208 287.534 109.394C285.922 107.514 283.403 106.574 279.978 106.574C278.031 106.574 276.284 106.943 274.74 107.682C273.195 108.353 271.885 109.327 270.811 110.603C269.736 111.812 268.897 113.256 268.292 114.935C267.688 116.614 267.386 118.394 267.386 120.274V151H255.901V79.0716Z" fill="white"/>
</g>
</g>
<defs>
<filter id="filter0_d_115_97" x="312.761" y="-0.93396" width="995.663" height="160.398" filterUnits="userSpaceOnUse" color-interpolation-filters="sRGB">
<feFlood flood-opacity="0" result="BackgroundImageFix"/>
<feColorMatrix in="SourceAlpha" type="matrix" values="0 0 0 0 0 0 0 0 0 0 0 0 0 0 0 0 0 0 127 0" result="hardAlpha"/>
<feOffset dy="1"/>
<feGaussianBlur stdDeviation="2"/>
<feComposite in2="hardAlpha" operator="out"/>
<feColorMatrix type="matrix" values="0 0 0 0 0 0 0 0 0 0 0 0 0 0 0 0 0 0 0.5 0"/>
<feBlend mode="normal" in2="BackgroundImageFix" result="effect1_dropShadow_115_97"/>
<feBlend mode="normal" in="SourceGraphic" in2="effect1_dropShadow_115_97" result="shape"/>
</filter>
<filter id="filter1_d_115_97" x="-1.07275" y="2.52963" width="306.71" height="156.323" filterUnits="userSpaceOnUse" color-interpolation-filters="sRGB">
<feFlood flood-opacity="0" result="BackgroundImageFix"/>
<feColorMatrix in="SourceAlpha" type="matrix" values="0 0 0 0 0 0 0 0 0 0 0 0 0 0 0 0 0 0 127 0" result="hardAlpha"/>
<feOffset dy="1"/>
<feGaussianBlur stdDeviation="2"/>
<feComposite in2="hardAlpha" operator="out"/>
<feColorMatrix type="matrix" values="0 0 0 0 0 0 0 0 0 0 0 0 0 0 0 0 0 0 0.5 0"/>
<feBlend mode="normal" in2="BackgroundImageFix" result="effect1_dropShadow_115_97"/>
<feBlend mode="normal" in="SourceGraphic" in2="effect1_dropShadow_115_97" result="shape"/>
</filter>
<clipPath id="clip0_115_97">
<rect width="1307" height="158" fill="white"/>
</clipPath>
</defs>
</svg>
