<svg width="1303" height="153" viewBox="0 0 1303 153" fill="none" xmlns="http://www.w3.org/2000/svg">
<g clip-path="url(#clip0_42_3)">
<rect width="1303" height="153" fill="white"/>
<path d="M448.414 149H432.115L428.244 131.886C421.453 139.628 414.661 144.993 407.87 147.981C401.079 150.969 393.269 152.464 384.44 152.464C373.574 152.464 363.794 150.494 355.101 146.555C346.544 142.48 339.278 136.979 333.301 130.052C327.325 123.125 322.707 115.043 319.447 105.807C316.323 96.5709 314.761 86.7235 314.761 76.2648C314.761 65.942 316.323 56.1625 319.447 46.9262C322.707 37.69 327.325 29.6084 333.301 22.6812C339.278 15.754 346.544 10.2531 355.101 6.17825C363.794 2.10345 373.574 0.0660547 384.44 0.0660547C392.318 0.0660547 399.788 1.15267 406.851 3.32589C414.05 5.36329 420.434 8.4873 426.003 12.6979C431.572 16.7727 436.19 21.9341 439.857 28.1822C443.525 34.4302 445.834 41.629 446.784 49.7786H421.928C421.249 45.0247 419.755 40.882 417.446 37.3505C415.273 33.6831 412.488 30.627 409.092 28.1822C405.697 25.7373 401.894 23.9036 397.683 22.6812C393.472 21.4588 389.058 20.8475 384.44 20.8475C376.698 20.8475 369.974 22.4095 364.27 25.5336C358.701 28.6576 354.151 32.8682 350.619 38.1654C347.088 43.3268 344.439 49.2353 342.673 55.8908C341.043 62.5463 340.228 69.3377 340.228 76.2648C340.228 83.192 341.043 89.9833 342.673 96.6388C344.439 103.294 347.088 109.271 350.619 114.568C354.151 119.729 358.701 123.872 364.27 126.996C369.974 130.12 376.698 131.682 384.44 131.682C390.96 131.818 396.732 131.003 401.758 129.237C406.783 127.336 410.994 124.687 414.39 121.291C417.921 117.76 420.57 113.481 422.336 108.456C424.101 103.43 425.052 97.8613 425.188 91.7491H386.477V72.3938H448.414V149ZM459.781 3.52963H529.256C545.284 3.52963 557.304 6.99321 565.318 13.9204C573.332 20.8475 577.339 30.4912 577.339 42.8515C577.339 49.7786 576.32 55.5512 574.283 60.1694C572.245 64.6516 569.868 68.319 567.152 71.1713C564.435 73.8878 561.719 75.8573 559.002 77.0798C556.421 78.3022 554.52 79.1172 553.297 79.5247V79.9321C555.471 80.2038 557.78 80.8829 560.225 81.9695C562.805 83.0561 565.182 84.8219 567.355 87.2668C569.529 89.5758 571.294 92.6319 572.653 96.4351C574.147 100.238 574.894 104.992 574.894 110.697C574.894 119.254 575.505 127.064 576.728 134.127C578.086 141.054 580.123 146.012 582.84 149H555.539C553.637 145.876 552.482 142.412 552.075 138.609C551.803 134.806 551.667 131.139 551.667 127.607C551.667 120.952 551.26 115.247 550.445 110.493C549.63 105.603 548.136 101.596 545.963 98.4725C543.79 95.2126 540.801 92.8357 536.998 91.3416C533.331 89.8475 528.577 89.1004 522.736 89.1004H485.248V149H459.781V3.52963ZM485.248 69.7451H527.015C535.165 69.7451 541.345 67.8436 545.555 64.0404C549.766 60.1014 551.871 54.2609 551.871 46.5188C551.871 41.9007 551.192 38.1654 549.834 35.3131C548.476 32.3249 546.574 30.0158 544.129 28.3859C541.82 26.756 539.104 25.6694 535.979 25.1261C532.991 24.5828 529.867 24.3111 526.607 24.3111H485.248V69.7451ZM641.13 3.52963H668.227L724.256 149H696.955L683.304 110.493H625.238L611.588 149H585.305L641.13 3.52963ZM632.165 91.1378H676.581L654.781 28.5897H654.169L632.165 91.1378ZM730.57 3.52963H766.429L806.565 117.42H806.973L846.091 3.52963H881.542V149H857.297V36.7393H856.889L816.549 149H795.563L755.223 36.7393H754.815V149H730.57V3.52963ZM899.404 3.52963H935.262L975.399 117.42H975.806L1014.92 3.52963H1050.38V149H1026.13V36.7393H1025.72L985.382 149H964.397L924.056 36.7393H923.649V149H899.404V3.52963ZM1110.62 91.9528L1056.01 3.52963H1085.56L1124.06 68.7264L1161.96 3.52963H1190.48L1136.08 91.9528V149H1110.62V91.9528ZM1209.31 100.51C1209.31 106.079 1210.27 110.833 1212.17 114.772C1214.07 118.711 1216.72 121.97 1220.11 124.551C1223.51 126.996 1227.38 128.83 1231.73 130.052C1236.21 131.139 1241.03 131.682 1246.19 131.682C1251.76 131.682 1256.51 131.071 1260.45 129.848C1264.39 128.49 1267.58 126.792 1270.03 124.755C1272.47 122.718 1274.24 120.408 1275.33 117.828C1276.41 115.111 1276.96 112.395 1276.96 109.678C1276.96 104.109 1275.67 100.034 1273.09 97.4538C1270.64 94.7372 1267.92 92.8357 1264.94 91.7491C1259.77 89.8475 1253.73 88.0817 1246.8 86.4518C1240.01 84.6861 1231.59 82.4449 1221.54 79.7284C1215.29 78.0985 1210.06 75.9932 1205.85 73.4125C1201.78 70.6959 1198.52 67.7077 1196.07 64.4479C1193.63 61.1881 1191.86 57.7245 1190.77 54.0572C1189.82 50.3898 1189.35 46.6546 1189.35 42.8515C1189.35 35.5168 1190.84 29.2009 1193.83 23.9036C1196.95 18.4706 1201.03 13.9883 1206.05 10.4568C1211.08 6.9253 1216.79 4.34459 1223.17 2.71466C1229.55 0.948925 1236 0.0660547 1242.52 0.0660547C1250.13 0.0660547 1257.26 1.08475 1263.92 3.12215C1270.71 5.02373 1276.62 7.944 1281.64 11.883C1286.8 15.8219 1290.88 20.7117 1293.87 26.5523C1296.86 32.257 1298.35 38.9125 1298.35 46.5188H1272.88C1272.2 37.1467 1269.01 30.5591 1263.31 26.756C1257.6 22.817 1250.33 20.8475 1241.51 20.8475C1238.52 20.8475 1235.46 21.1871 1232.34 21.8662C1229.21 22.4095 1226.36 23.4282 1223.78 24.9223C1221.2 26.2806 1219.03 28.1822 1217.26 30.6271C1215.63 33.0719 1214.82 36.128 1214.82 39.7954C1214.82 44.9568 1216.38 49.0316 1219.5 52.0198C1222.76 54.8721 1226.97 57.0453 1232.13 58.5394C1232.68 58.6753 1234.78 59.2865 1238.45 60.3731C1242.25 61.3239 1246.46 62.4105 1251.08 63.6329C1255.7 64.8554 1260.18 66.0778 1264.53 67.3003C1269.01 68.3869 1272.2 69.2018 1274.1 69.7451C1278.86 71.2392 1283 73.2766 1286.53 75.8573C1290.06 78.438 1292.98 81.4262 1295.29 84.8219C1297.74 88.0817 1299.5 91.6132 1300.59 95.4164C1301.81 99.2195 1302.42 103.023 1302.42 106.826C1302.42 114.975 1300.73 121.97 1297.33 127.811C1294.07 133.516 1289.72 138.202 1284.29 141.869C1278.86 145.536 1272.68 148.185 1265.75 149.815C1258.82 151.581 1251.76 152.464 1244.56 152.464C1236.28 152.464 1228.47 151.445 1221.13 149.407C1213.8 147.37 1207.41 144.246 1201.98 140.035C1196.55 135.825 1192.2 130.46 1188.94 123.94C1185.68 117.284 1183.98 109.474 1183.85 100.51H1209.31Z" fill="black"/>
<path d="M74.4773 42.444C73.934 36.6034 71.8287 31.9174 68.1614 28.3859C64.6299 24.7186 59.808 22.8849 53.6958 22.8849C49.4852 22.8849 45.8179 23.6999 42.6939 25.3298C39.7057 26.8239 37.125 28.8613 34.9517 31.442C32.9143 34.0227 31.2165 37.0109 29.8582 40.4066C28.6358 43.6664 27.6171 47.13 26.8021 50.7973C25.9872 54.4646 25.376 58.132 24.9685 61.7993C24.6968 65.3308 24.4252 68.6585 24.1535 71.7825L24.561 72.19C27.685 66.4853 31.9636 62.2747 37.3966 59.5581C42.9655 56.7058 48.9419 55.2796 55.3257 55.2796C62.3887 55.2796 68.7047 56.502 74.2736 58.9469C79.8425 61.3918 84.5285 64.7875 88.3316 69.1339C92.2706 73.3445 95.2588 78.3701 97.2962 84.2107C99.3336 90.0512 100.352 96.3672 100.352 103.158C100.352 110.086 99.1978 116.537 96.8887 122.514C94.7155 128.354 91.5236 133.516 87.3129 137.998C83.1023 142.344 78.0767 145.74 72.2362 148.185C66.3956 150.63 59.9439 151.852 52.8809 151.852C42.4222 151.852 33.7972 149.951 27.0059 146.148C20.3504 142.209 15.0531 136.911 11.1142 130.256C7.31101 123.465 4.66239 115.587 3.1683 106.622C1.67421 97.5217 0.927161 87.7422 0.927161 77.2835C0.927161 68.7264 1.81003 60.1014 3.57578 51.4085C5.47735 42.7156 8.53345 34.8377 12.7441 27.7747C16.9547 20.5759 22.4557 14.7353 29.247 10.253C36.1742 5.77077 44.6633 3.52963 54.7145 3.52963C60.4192 3.52963 65.7844 4.48041 70.81 6.38199C75.8356 8.28356 80.2499 10.9322 84.0531 14.3279C87.9921 17.7235 91.184 21.7983 93.6289 26.5523C96.0737 31.3062 97.432 36.6034 97.7037 42.444H74.4773ZM52.0659 132.497C56.2765 132.497 59.9439 131.682 63.0679 130.052C66.1919 128.286 68.7726 126.045 70.81 123.329C72.9832 120.612 74.5452 117.488 75.496 113.957C76.5826 110.289 77.1259 106.554 77.1259 102.751C77.1259 98.9479 76.5826 95.2805 75.496 91.7491C74.5452 88.2176 72.9832 85.1615 70.81 82.5808C68.7726 79.8642 66.1919 77.691 63.0679 76.0611C59.9439 74.4312 56.2765 73.6162 52.0659 73.6162C47.8553 73.6162 44.12 74.4312 40.8602 76.0611C37.7362 77.5552 35.0876 79.6605 32.9143 82.377C30.7411 84.9577 29.1112 88.0138 28.0246 91.5453C26.938 95.0768 26.3947 98.812 26.3947 102.751C26.3947 106.69 26.938 110.425 28.0246 113.957C29.1112 117.488 30.7411 120.68 32.9143 123.532C35.0876 126.249 37.7362 128.422 40.8602 130.052C44.12 131.682 47.8553 132.497 52.0659 132.497ZM123.918 96.8426H167.111V34.0906H166.703L123.918 96.8426ZM207.451 115.179H189.114V149H167.111V115.179H105.989V92.1565L167.111 6.38199H189.114V96.8426H207.451V115.179ZM215.116 96.9174H223.779V81.3027H235.264V96.9174H245.64V105.48H235.264V133.285C235.264 134.493 235.297 135.534 235.364 136.408C235.499 137.281 235.734 138.019 236.07 138.624C236.473 139.228 237.043 139.698 237.782 140.034C238.521 140.303 239.528 140.437 240.804 140.437C241.61 140.437 242.416 140.437 243.222 140.437C244.028 140.37 244.834 140.236 245.64 140.034V148.899C244.364 149.034 243.121 149.168 241.913 149.302C240.704 149.437 239.461 149.504 238.185 149.504C235.163 149.504 232.712 149.235 230.831 148.698C229.018 148.093 227.574 147.254 226.499 146.179C225.492 145.038 224.787 143.627 224.384 141.948C224.048 140.269 223.847 138.355 223.779 136.206V105.48H215.116V96.9174ZM253.901 77.0716H265.386V103.768H265.587C266.998 101.417 269.08 99.4695 271.833 97.9248C274.654 96.313 277.777 95.5071 281.202 95.5071C286.911 95.5071 291.41 96.9846 294.701 99.9396C297.992 102.895 299.637 107.327 299.637 113.237V149H288.153V116.259C288.019 112.163 287.146 109.208 285.534 107.394C283.922 105.514 281.403 104.574 277.978 104.574C276.031 104.574 274.284 104.943 272.74 105.682C271.195 106.353 269.885 107.327 268.811 108.603C267.736 109.812 266.897 111.256 266.292 112.935C265.688 114.614 265.386 116.394 265.386 118.274V149H253.901V77.0716Z" fill="black"/>
</g>
<defs>
<clipPath id="clip0_42_3">
<rect width="1303" height="153" fill="white"/>
</clipPath>
</defs>
</svg>
